<svg width="16" height="16" viewBox="0 0 80 80" fill="none" xmlns="http://www.w3.org/2000/svg">
  <g clip-path="url(#a)">
    <path d="M40 80c22.091 0 40-17.909 40-40S62.091 0 40 0 0 17.909 0 40s17.909 40 40 40" fill="#7D2AE7"/>
    <path d="M40 80c22.091 0 40-17.909 40-40S62.091 0 40 0 0 17.909 0 40s17.909 40 40 40" fill="url(#b)"/>
    <path d="M40 80c22.091 0 40-17.909 40-40S62.091 0 40 0 0 17.909 0 40s17.909 40 40 40" fill="url(#c)"/>
    <path d="M40 80c22.091 0 40-17.909 40-40S62.091 0 40 0 0 17.909 0 40s17.909 40 40 40" fill="url(#d)"/>
    <path d="M40 80c22.091 0 40-17.909 40-40S62.091 0 40 0 0 17.909 0 40s17.909 40 40 40" fill="url(#e)"/>
    <path d="M57.27 48.205c-.331 0-.622.279-.924.888-3.414 6.922-9.31 11.82-16.133 11.82-7.89 0-12.776-7.122-12.776-16.96 0-16.668 9.286-26.304 17.443-26.304 3.811 0 6.139 2.395 6.139 6.207 0 4.524-2.57 6.919-2.57 8.514 0 .716.445 1.15 1.328 1.15 3.55 0 7.715-4.078 7.715-9.84 0-5.585-4.862-9.691-13.018-9.691-13.48 0-25.46 12.497-25.46 29.788 0 13.384 7.643 22.23 19.436 22.23 12.517 0 19.754-12.454 19.754-16.497 0-.895-.457-1.305-.935-1.305" fill="#fff"/>
  </g>
  <defs>
    <radialGradient id="b" cx="0" cy="0" r="1" gradientUnits="userSpaceOnUse" gradientTransform="rotate(-49.416 84.778 18.66)scale(61.8733)">
      <stop stop-color="#6420FF"/>
      <stop offset="1" stop-color="#6420FF" stop-opacity="0"/>
    </radialGradient>
    <radialGradient id="c" cx="0" cy="0" r="1" gradientUnits="userSpaceOnUse" gradientTransform="rotate(54.703 1.799 25.019)scale(69.7735)">
      <stop stop-color="#00C4CC"/>
      <stop offset="1" stop-color="#00C4CC" stop-opacity="0"/>
    </radialGradient>
    <radialGradient id="d" cx="0" cy="0" r="1" gradientUnits="userSpaceOnUse" gradientTransform="matrix(43.07399 -43.36818 19.94558 19.81028 15.452 70.905)">
      <stop stop-color="#6420FF"/>
      <stop offset="1" stop-color="#6420FF" stop-opacity="0"/>
    </radialGradient>
    <radialGradient id="e" cx="0" cy="0" r="1" gradientUnits="userSpaceOnUse" gradientTransform="rotate(66.52 8.14 30.33)scale(62.9836 105.512)">
      <stop stop-color="#00C4CC" stop-opacity=".726"/>
      <stop offset="0" stop-color="#00C4CC"/>
      <stop offset="1" stop-color="#00C4CC" stop-opacity="0"/>
    </radialGradient>
    <clipPath id="a">
      <path fill="#fff" d="M0 0h80v80H0z"/>
    </clipPath>
  </defs>
</svg>
