<svg width="16" height= "16" viewBox="0 0 54 80" fill="none" xmlns="http://www.w3.org/2000/svg">
  <g clip-path="url(#a)">
    <path d="M13.333 80c7.36 0 13.334-5.973 13.334-13.333V53.334H13.333C5.973 53.334 0 59.307 0 66.667S5.973 80 13.333 80" fill="#0ACF83"/>
    <path d="M0 40c0-7.36 5.973-13.333 13.333-13.333h13.334v26.666H13.333C5.973 53.333 0 47.36 0 40" fill="#A259FF"/>
    <path d="M0 13.333C0 5.973 5.973 0 13.333 0h13.334v26.667H13.333C5.973 26.667 0 20.693 0 13.333" fill="#F24E1E"/>
    <path d="M26.667 0H40c7.36 0 13.333 5.973 13.333 13.333S47.36 26.667 40 26.667H26.667z" fill="#FF7262"/>
    <path d="M53.333 40c0 7.36-5.973 13.333-13.333 13.333S26.667 47.36 26.667 40 32.64 26.667 40 26.667 53.333 32.64 53.333 40" fill="#1ABCFE"/>
  </g>
  <defs>
    <clipPath id="a">
      <path fill="#fff" d="M0 0h53.333v80H0z"/>
    </clipPath>
  </defs>
</svg>
